<svg clip-rule="evenodd" fill-rule="evenodd" height="512" image-rendering="optimizeQuality" shape-rendering="geometricPrecision" text-rendering="geometricPrecision" viewBox="0 0 2667 2667" width="512" xmlns="http://www.w3.org/2000/svg"><g id="Layer_x0020_1"><circle cx="1333" cy="1333" fill="#7ed63f" r="1333"/><path d="m560 975h1547v-95h-1547zm-40-349h1627c22 0 40 18 40 40v1335c0 22-18 40-40 40h-1627c-22 0-40-18-40-40v-1335c0-22 18-40 40-40zm1587 80h-1547v94h1547zm-1202 672c113 0 175 139 92 222-85 83-222 21-222-92 0-72 58-130 130-130zm35 95c-19-20-50-20-70 0-47 47 26 117 70 70 20-19 20-51 0-70zm822-95c165 0 175 260 0 260-167 0-175-260 0-260zm1 80c-28-1-51 21-51 50 0 20 23 52 50 51 25-1 47-23 50-47 2-17-20-53-49-54zm-430-203c225 0 338 273 179 432s-432 46-432-179c0-140 114-253 253-253zm123 131c-109-109-296-32-296 122s187 231 296 122c67-67 67-177 0-244zm-622-244h999c22 0 40 18 40 40 0 59 48 107 107 107 22 0 40 17 40 40v374c0 22-18 40-40 40-54 0-101 41-106 96-2 20-20 35-40 35h-1001c-22 0-39-16-40-38-7-53-53-93-106-93-22 0-40-18-40-40v-374c0-23 18-40 40-40 59 0 107-48 107-107 0-22 17-40 40-40zm963 80h-928c-15 71-71 127-142 142v304c65 14 118 63 138 126h937c20-64 73-112 138-126v-304c-71-15-127-71-143-142zm310-167h-1547v906h1547z" fill="#fefefe" fill-rule="nonzero"/></g></svg>